<?xml version="1.0"?>
<svg xmlns="http://www.w3.org/2000/svg" xmlns:xlink="http://www.w3.org/1999/xlink" xmlns:svgjs="http://svgjs.com/svgjs" version="1.1" width="512" height="512" x="0" y="0" viewBox="0 0 512 512" style="enable-background:new 0 0 512 512" xml:space="preserve" class=""><g><g xmlns="http://www.w3.org/2000/svg"><path d="m160 384v-368h-22c-27.61 0-50 22.39-50 50v374c0-15.46 6.27-29.46 16.4-39.6 10.14-10.13 24.14-16.4 39.6-16.4z" fill="#ff6161" data-original="#a18b76" style="" class=""/><path d="m160 16h264v368h-264z" fill="#ff6161" data-original="#b59f89" style="" class=""/><path d="m424 496v-112h-280c-15.46 0-29.46 6.27-39.6 16.4-10.13 10.14-16.4 24.14-16.4 39.6 0 30.93 25.07 56 56 56z" fill="#ffffff" data-original="#e2e0e0" style="" class=""/><path d="m384 16h40v368h-40z" fill="#ff6161" data-original="#a18b76" style="" class=""/><g><path d="m424 456h-280c-8.837 0-16-7.164-16-16s7.163-16 16-16h280c8.837 0 16 7.164 16 16s-7.163 16-16 16z" fill="#000000" data-original="#000000" style="" class=""/></g><path d="m144 400h280c8.837 0 16-7.164 16-16v-368c0-8.836-7.163-16-16-16h-286c-36.393 0-66 29.607-66 66v374c0 39.701 32.299 72 72 72h280c8.837 0 16-7.164 16-16s-7.163-16-16-16h-280c-22.056 0-40-17.944-40-40s17.944-40 40-40zm264-32h-232v-336h232zm-304-302c0-18.748 15.252-34 34-34h6v336c-14.791 0-28.551 4.488-40 12.167z" fill="#000000" data-original="#000000" style="" class=""/></g></g></svg>
